<svg xmlns="http://www.w3.org/2000/svg" xmlns:xlink="http://www.w3.org/1999/xlink" width="1366" zoomAndPan="magnify" viewBox="0 0 1024.5 576" height="768" preserveAspectRatio="xMidYMid meet" version="1.0"><defs><filter x="0%" y="0%" width="100%" height="100%" id="d320d862e4"><feColorMatrix values="0 0 0 0 1 0 0 0 0 1 0 0 0 0 1 0 0 0 1 0" color-interpolation-filters="sRGB"/></filter><g/><clipPath id="e1d42c288c"><path d="M 0 0.140625 L 1024 0.140625 L 1024 575.859375 L 0 575.859375 Z M 0 0.140625 " clip-rule="nonzero"/></clipPath><clipPath id="a843d1fef4"><path d="M 310 445 L 339.585938 445 L 339.585938 496 L 310 496 Z M 310 445 " clip-rule="nonzero"/></clipPath><clipPath id="80bf96d506"><path d="M 310 461 L 339.585938 461 L 339.585938 479 L 310 479 Z M 310 461 " clip-rule="nonzero"/></clipPath><clipPath id="7412497a52"><path d="M 310 412 L 339.585938 412 L 339.585938 447 L 310 447 Z M 310 412 " clip-rule="nonzero"/></clipPath><clipPath id="dd0c847888"><path d="M 324 421 L 339.585938 421 L 339.585938 430 L 324 430 Z M 324 421 " clip-rule="nonzero"/></clipPath><clipPath id="65e0997a97"><path d="M 0.75 363.871094 L 30 363.871094 L 30 398 L 0.75 398 Z M 0.75 363.871094 " clip-rule="nonzero"/></clipPath><clipPath id="d05c6796c7"><path d="M 1 526 L 30 526 L 30 575.859375 L 1 575.859375 Z M 1 526 " clip-rule="nonzero"/></clipPath><clipPath id="451c218ec8"><path d="M 42 363.871094 L 59 363.871094 L 59 382 L 42 382 Z M 42 363.871094 " clip-rule="nonzero"/></clipPath><clipPath id="8d94988ef5"><path d="M 678.234375 363.871094 L 708 363.871094 L 708 398 L 678.234375 398 Z M 678.234375 363.871094 " clip-rule="nonzero"/></clipPath><clipPath id="d430007046"><path d="M 678.234375 412 L 708 412 L 708 447 L 678.234375 447 Z M 678.234375 412 " clip-rule="nonzero"/></clipPath><clipPath id="da20b286b7"><path d="M 678.234375 429 L 694 429 L 694 438 L 678.234375 438 Z M 678.234375 429 " clip-rule="nonzero"/></clipPath><clipPath id="f2c5e7eaa7"><path d="M 678.234375 477 L 708 477 L 708 512 L 678.234375 512 Z M 678.234375 477 " clip-rule="nonzero"/></clipPath><clipPath id="95e9ee22ad"><path d="M 678.234375 486 L 694 486 L 694 495 L 678.234375 495 Z M 678.234375 486 " clip-rule="nonzero"/></clipPath><clipPath id="970e4434a1"><path d="M 678.234375 526 L 708 526 L 708 575.859375 L 678.234375 575.859375 Z M 678.234375 526 " clip-rule="nonzero"/></clipPath><clipPath id="ce9a6b9f7b"><path d="M 678.234375 542 L 708 542 L 708 560 L 678.234375 560 Z M 678.234375 542 " clip-rule="nonzero"/></clipPath><clipPath id="48ec20e215"><path d="M 720 363.871094 L 736 363.871094 L 736 382 L 720 382 Z M 720 363.871094 " clip-rule="nonzero"/></clipPath><clipPath id="a963254d1c"><path d="M 339.492188 445 L 369 445 L 369 496 L 339.492188 496 Z M 339.492188 445 " clip-rule="nonzero"/></clipPath><clipPath id="9df8c625fe"><path d="M 339.492188 461 L 369 461 L 369 479 L 339.492188 479 Z M 339.492188 461 " clip-rule="nonzero"/></clipPath><clipPath id="17a6338b22"><path d="M 339.492188 412 L 369 412 L 369 447 L 339.492188 447 Z M 339.492188 412 " clip-rule="nonzero"/></clipPath><clipPath id="0fbb88bb1d"><path d="M 339.492188 421 L 355 421 L 355 430 L 339.492188 430 Z M 339.492188 421 " clip-rule="nonzero"/></clipPath><clipPath id="75f76dd218"><path d="M 649 363.871094 L 678.230469 363.871094 L 678.230469 398 L 649 398 Z M 649 363.871094 " clip-rule="nonzero"/></clipPath><clipPath id="a5cc287987"><path d="M 649 526 L 678 526 L 678 575.859375 L 649 575.859375 Z M 649 526 " clip-rule="nonzero"/></clipPath><clipPath id="8d35538ee4"><path d="M 620 363.871094 L 637 363.871094 L 637 382 L 620 382 Z M 620 363.871094 " clip-rule="nonzero"/></clipPath><mask id="aff6c50828"><g filter="url(#d320d862e4)"><rect x="-102.45" width="1229.4" fill="#000000" y="-57.6" height="691.2" fill-opacity="0.36"/></g></mask><clipPath id="d042395fac"><path d="M 25 243 L 72.882812 243 L 72.882812 276 L 25 276 Z M 25 243 " clip-rule="nonzero"/></clipPath><clipPath id="d03fc24b0c"><rect x="0" width="73" y="0" height="281"/></clipPath></defs><g clip-path="url(#e1d42c288c)"><path fill="#ffffff" d="M 0 0.140625 L 1024 0.140625 L 1024 575.859375 L 0 575.859375 Z M 0 0.140625 " fill-opacity="1" fill-rule="nonzero"/><path fill="#deedfa" d="M 0 0.140625 L 1024 0.140625 L 1024 575.859375 L 0 575.859375 Z M 0 0.140625 " fill-opacity="1" fill-rule="nonzero"/></g><g clip-path="url(#a843d1fef4)"><path fill="#38b6ff" d="M 338.996094 445.492188 L 310.683594 461.839844 L 310.683594 495.101562 C 320.285156 489.558594 329.882812 484.003906 339.492188 478.46875 L 339.492188 445.207031 Z M 311.34375 462.21875 L 338.828125 446.351562 L 338.828125 478.089844 L 311.34375 493.957031 L 311.34375 462.21875 " fill-opacity="1" fill-rule="evenodd"/></g><g clip-path="url(#80bf96d506)"><path fill="#38b6ff" d="M 311.175781 478.566406 L 339.324219 462.316406 L 338.996094 461.742188 L 310.851562 477.992188 L 311.175781 478.566406 " fill-opacity="1" fill-rule="evenodd"/></g><g clip-path="url(#7412497a52)"><path fill="#38b6ff" d="M 338.996094 412.992188 L 310.351562 429.527344 C 320.066406 435.136719 329.777344 440.75 339.488281 446.351562 L 339.488281 412.707031 Z M 311.671875 429.527344 L 338.828125 413.851562 L 338.828125 445.207031 L 311.671875 429.527344 " fill-opacity="1" fill-rule="evenodd"/></g><g clip-path="url(#dd0c847888)"><path fill="#38b6ff" d="M 339.328125 429.246094 L 325.25 421.117188 L 324.917969 421.691406 L 338.992188 429.816406 L 339.328125 429.246094 " fill-opacity="1" fill-rule="evenodd"/></g><g clip-path="url(#65e0997a97)"><path fill="#38b6ff" d="M 29.226562 396.457031 L 2.066406 380.78125 L 29.226562 365.101562 Z M 1.246094 381.0625 L 29.886719 397.601562 L 29.886719 363.957031 C 20.171875 369.558594 10.460938 375.171875 0.75 380.78125 L 1.246094 381.0625 " fill-opacity="1" fill-rule="evenodd"/></g><path fill="#38b6ff" d="M 29.390625 380.492188 L 15.316406 388.617188 L 15.644531 389.1875 L 29.71875 381.0625 L 29.390625 380.492188 " fill-opacity="1" fill-rule="evenodd"/><path fill="#38b6ff" d="M 1.738281 445.207031 L 28.898438 429.53125 L 1.738281 413.851562 Z M 29.71875 429.816406 L 1.078125 446.351562 L 1.078125 412.710938 C 10.789062 418.3125 20.503906 423.921875 30.214844 429.53125 L 29.71875 429.816406 " fill-opacity="1" fill-rule="evenodd"/><path fill="#38b6ff" d="M 1.574219 429.242188 L 15.648438 437.371094 L 15.316406 437.941406 L 1.246094 429.816406 L 1.574219 429.242188 " fill-opacity="1" fill-rule="evenodd"/><path fill="#38b6ff" d="M 1.738281 478.851562 L 28.898438 494.53125 L 1.738281 510.210938 Z M 29.71875 494.246094 L 1.078125 477.707031 L 1.078125 511.351562 C 10.789062 505.75 20.503906 500.140625 30.214844 494.53125 L 29.71875 494.246094 " fill-opacity="1" fill-rule="evenodd"/><path fill="#38b6ff" d="M 1.574219 494.816406 L 15.648438 486.691406 L 15.316406 486.121094 L 1.246094 494.246094 L 1.574219 494.816406 " fill-opacity="1" fill-rule="evenodd"/><g clip-path="url(#d05c6796c7)"><path fill="#38b6ff" d="M 29.390625 526.746094 L 1.078125 543.089844 L 1.078125 576.355469 C 10.679688 570.808594 20.277344 565.253906 29.886719 559.722656 L 29.886719 526.457031 Z M 1.738281 543.46875 L 29.226562 527.601562 L 29.226562 559.339844 L 1.738281 575.207031 L 1.738281 543.46875 " fill-opacity="1" fill-rule="evenodd"/></g><path fill="#38b6ff" d="M 1.574219 559.816406 L 29.71875 543.566406 L 29.390625 542.992188 L 1.246094 559.246094 L 1.574219 559.816406 " fill-opacity="1" fill-rule="evenodd"/><path fill="#38b6ff" d="M 86.011719 429.246094 L 114.652344 445.78125 C 105.050781 451.328125 95.453125 456.875 85.84375 462.414062 C 76.238281 456.875 66.644531 451.324219 57.042969 445.78125 C 66.644531 440.238281 76.25 434.703125 85.84375 429.148438 Z M 113.332031 445.78125 L 85.84375 429.910156 L 58.359375 445.78125 L 85.84375 461.648438 L 113.332031 445.78125 " fill-opacity="1" fill-rule="evenodd"/><path fill="#38b6ff" d="M 71.609375 453.617188 L 99.753906 437.371094 L 100.082031 437.941406 L 71.9375 454.191406 L 71.609375 453.617188 " fill-opacity="1" fill-rule="evenodd"/><path fill="#38b6ff" d="M 57.371094 446.351562 L 29.886719 462.21875 L 29.886719 493.957031 L 57.371094 478.089844 Z M 29.390625 461.742188 L 58.03125 445.207031 L 58.03125 478.46875 C 48.433594 484.019531 38.828125 489.5625 29.222656 495.105469 C 29.230469 484.015625 29.242188 472.925781 29.222656 461.839844 L 29.390625 461.742188 " fill-opacity="1" fill-rule="evenodd"/><path fill="#38b6ff" d="M 29.390625 477.996094 L 57.535156 461.746094 L 57.863281 462.316406 L 29.71875 478.566406 L 29.390625 477.996094 " fill-opacity="1" fill-rule="evenodd"/><path fill="#38b6ff" d="M 57.863281 380.496094 L 86.179688 396.839844 L 86.179688 430.101562 C 76.574219 424.558594 66.980469 419.007812 57.371094 413.46875 L 57.371094 380.210938 Z M 85.515625 397.222656 L 58.03125 381.351562 L 58.03125 413.089844 L 85.515625 428.957031 L 85.515625 397.222656 " fill-opacity="1" fill-rule="evenodd"/><path fill="#38b6ff" d="M 85.679688 413.566406 L 57.535156 397.316406 L 57.863281 396.746094 L 86.011719 412.992188 L 85.679688 413.566406 " fill-opacity="1" fill-rule="evenodd"/><path fill="#38b6ff" d="M 86.011719 461.746094 L 114.324219 478.089844 L 114.324219 511.351562 C 104.722656 505.808594 95.117188 500.273438 85.515625 494.71875 L 85.515625 461.460938 Z M 113.660156 478.46875 L 86.179688 462.601562 L 86.179688 494.339844 L 113.660156 510.207031 L 113.660156 478.46875 " fill-opacity="1" fill-rule="evenodd"/><path fill="#38b6ff" d="M 113.828125 494.816406 L 85.679688 478.566406 L 86.011719 477.996094 L 114.15625 494.242188 L 113.828125 494.816406 " fill-opacity="1" fill-rule="evenodd"/><path fill="#38b6ff" d="M 114.324219 445.207031 L 141.476562 429.53125 L 114.324219 413.851562 Z M 142.300781 429.816406 L 113.660156 446.351562 L 113.660156 412.710938 C 123.375 418.3125 133.085938 423.921875 142.796875 429.53125 L 142.300781 429.816406 " fill-opacity="1" fill-rule="evenodd"/><path fill="#38b6ff" d="M 114.160156 429.242188 L 128.230469 437.371094 L 127.898438 437.941406 L 113.824219 429.816406 L 114.160156 429.242188 " fill-opacity="1" fill-rule="evenodd"/><path fill="#38b6ff" d="M 141.804688 462.601562 L 114.652344 478.28125 L 141.804688 493.957031 Z M 113.828125 477.996094 L 142.46875 461.457031 L 142.46875 495.101562 C 132.753906 489.5 123.046875 483.886719 113.332031 478.28125 L 113.828125 477.996094 " fill-opacity="1" fill-rule="evenodd"/><path fill="#38b6ff" d="M 141.972656 478.566406 L 127.898438 470.441406 L 128.230469 469.867188 L 142.304688 477.996094 L 141.972656 478.566406 " fill-opacity="1" fill-rule="evenodd"/><path fill="#38b6ff" d="M 85.515625 495.105469 L 58.359375 510.777344 L 85.515625 526.457031 Z M 57.535156 510.496094 L 86.179688 493.957031 L 86.179688 527.601562 C 76.464844 522 66.753906 516.390625 57.042969 510.777344 L 57.535156 510.496094 " fill-opacity="1" fill-rule="evenodd"/><path fill="#38b6ff" d="M 85.679688 511.066406 L 71.605469 502.941406 L 71.9375 502.371094 L 86.011719 510.496094 L 85.679688 511.066406 " fill-opacity="1" fill-rule="evenodd"/><path fill="#38b6ff" d="M 57.535156 543.566406 L 28.894531 527.03125 L 58.03125 510.210938 L 58.03125 543.851562 Z M 30.210938 527.03125 L 57.371094 542.707031 L 57.371094 511.351562 L 30.210938 527.03125 " fill-opacity="1" fill-rule="evenodd"/><path fill="#38b6ff" d="M 57.863281 527.316406 L 43.792969 535.441406 L 43.460938 534.867188 L 57.535156 526.746094 L 57.863281 527.316406 " fill-opacity="1" fill-rule="evenodd"/><path fill="#38b6ff" d="M 114.15625 510.496094 L 142.796875 527.03125 C 133.085938 532.640625 123.375 538.25 113.660156 543.851562 L 113.660156 510.210938 Z M 141.476562 527.03125 L 114.324219 511.351562 L 114.324219 542.707031 L 141.476562 527.03125 " fill-opacity="1" fill-rule="evenodd"/><path fill="#38b6ff" d="M 113.824219 526.746094 L 127.898438 518.621094 L 128.230469 519.191406 L 114.160156 527.320312 L 113.824219 526.746094 " fill-opacity="1" fill-rule="evenodd"/><path fill="#38b6ff" d="M 170.285156 478.660156 L 142.796875 494.53125 L 170.285156 510.398438 L 197.769531 494.53125 Z M 141.972656 494.242188 L 170.285156 477.898438 C 179.878906 483.453125 189.488281 488.984375 199.089844 494.53125 C 189.488281 500.078125 179.890625 505.628906 170.285156 511.160156 C 160.675781 505.628906 151.078125 500.074219 141.476562 494.53125 L 141.972656 494.242188 " fill-opacity="1" fill-rule="evenodd"/><path fill="#38b6ff" d="M 184.191406 502.941406 L 156.046875 486.691406 L 156.378906 486.117188 L 184.523438 502.367188 L 184.191406 502.941406 " fill-opacity="1" fill-rule="evenodd"/><path fill="#38b6ff" d="M 198.097656 430.101562 L 170.613281 445.96875 L 170.613281 477.707031 L 198.097656 461.839844 Z M 170.121094 445.492188 L 198.761719 428.960938 L 198.761719 462.222656 C 189.160156 467.769531 179.558594 473.3125 169.953125 478.851562 C 169.957031 467.765625 169.972656 456.675781 169.953125 445.589844 L 170.121094 445.492188 " fill-opacity="1" fill-rule="evenodd"/><path fill="#38b6ff" d="M 170.121094 461.746094 L 198.265625 445.492188 L 198.59375 446.066406 L 170.449219 462.316406 L 170.121094 461.746094 " fill-opacity="1" fill-rule="evenodd"/><path fill="#38b6ff" d="M 226.246094 446.351562 L 199.089844 462.027344 L 226.246094 477.707031 Z M 198.265625 461.746094 L 226.90625 445.207031 L 226.90625 478.851562 C 217.191406 473.246094 207.480469 467.636719 197.769531 462.027344 L 198.265625 461.746094 " fill-opacity="1" fill-rule="evenodd"/><path fill="#38b6ff" d="M 226.410156 462.316406 L 212.339844 454.191406 L 212.667969 453.617188 L 226.738281 461.746094 L 226.410156 462.316406 " fill-opacity="1" fill-rule="evenodd"/><path fill="#38b6ff" d="M 226.738281 477.996094 L 255.050781 494.339844 L 255.050781 527.605469 C 245.449219 522.058594 235.84375 516.519531 226.246094 510.96875 L 226.246094 477.707031 Z M 254.390625 494.71875 L 226.90625 478.851562 L 226.90625 510.589844 L 254.390625 526.457031 L 254.390625 494.71875 " fill-opacity="1" fill-rule="evenodd"/><path fill="#38b6ff" d="M 254.554688 511.066406 L 226.410156 494.816406 L 226.738281 494.242188 L 254.886719 510.496094 L 254.554688 511.066406 " fill-opacity="1" fill-rule="evenodd"/><path fill="#38b6ff" d="M 226.410156 543.566406 L 197.769531 527.03125 L 226.90625 510.210938 L 226.90625 543.851562 Z M 199.089844 527.03125 L 226.246094 542.707031 L 226.246094 511.351562 L 199.089844 527.03125 " fill-opacity="1" fill-rule="evenodd"/><path fill="#38b6ff" d="M 226.738281 527.316406 L 212.667969 535.441406 L 212.339844 534.867188 L 226.410156 526.746094 L 226.738281 527.316406 " fill-opacity="1" fill-rule="evenodd"/><path fill="#38b6ff" d="M 282.703125 478.566406 L 254.0625 462.027344 L 283.199219 445.207031 L 283.199219 478.851562 Z M 255.382812 462.027344 L 282.535156 477.707031 L 282.535156 446.351562 L 255.382812 462.027344 " fill-opacity="1" fill-rule="evenodd"/><path fill="#38b6ff" d="M 283.03125 462.316406 L 268.960938 470.441406 L 268.628906 469.867188 L 282.703125 461.742188 L 283.03125 462.316406 " fill-opacity="1" fill-rule="evenodd"/><path fill="#38b6ff" d="M 254.554688 429.816406 L 225.917969 413.28125 C 235.628906 407.675781 245.339844 402.0625 255.050781 396.457031 L 255.050781 430.101562 Z M 227.234375 413.28125 L 254.390625 428.960938 L 254.390625 397.601562 L 227.234375 413.28125 " fill-opacity="1" fill-rule="evenodd"/><path fill="#38b6ff" d="M 254.886719 413.566406 L 240.8125 421.691406 L 240.484375 421.117188 L 254.554688 412.992188 L 254.886719 413.566406 " fill-opacity="1" fill-rule="evenodd"/><path fill="#38b6ff" d="M 283.03125 477.996094 L 311.34375 494.339844 L 311.34375 527.605469 C 301.742188 522.058594 292.136719 516.519531 282.535156 510.96875 L 282.535156 477.707031 Z M 310.683594 494.71875 L 283.199219 478.851562 L 283.199219 510.589844 L 310.683594 526.457031 L 310.683594 494.71875 " fill-opacity="1" fill-rule="evenodd"/><path fill="#38b6ff" d="M 310.847656 511.066406 L 282.703125 494.816406 L 283.03125 494.242188 L 311.175781 510.496094 L 310.847656 511.066406 " fill-opacity="1" fill-rule="evenodd"/><path fill="#38b6ff" d="M 29.71875 396.746094 L 58.03125 413.089844 L 58.03125 430.101562 C 48.429688 424.558594 38.832031 419.003906 29.226562 413.46875 L 29.226562 396.457031 Z M 57.371094 413.46875 L 29.886719 397.601562 L 29.886719 413.089844 L 57.371094 428.957031 L 57.371094 413.46875 " fill-opacity="1" fill-rule="evenodd"/><g clip-path="url(#451c218ec8)"><path fill="#38b6ff" d="M 57.535156 381.066406 L 42.96875 372.652344 L 58.03125 363.957031 L 58.03125 381.351562 Z M 44.289062 372.652344 L 57.371094 380.207031 L 57.371094 365.105469 L 44.289062 372.652344 " fill-opacity="1" fill-rule="evenodd"/></g><path fill="#38b6ff" d="M 29.390625 462.316406 L 14.820312 453.902344 C 19.84375 451.007812 24.863281 448.109375 29.886719 445.207031 L 29.886719 462.601562 Z M 16.144531 453.902344 L 29.226562 461.457031 L 29.226562 446.351562 L 16.144531 453.902344 " fill-opacity="1" fill-rule="evenodd"/><path fill="#38b6ff" d="M 58.03125 493.957031 L 71.113281 486.40625 L 58.03125 478.851562 Z M 71.9375 486.691406 L 57.371094 495.105469 L 57.371094 477.707031 L 72.433594 486.40625 L 71.9375 486.691406 " fill-opacity="1" fill-rule="evenodd"/><path fill="#38b6ff" d="M 29.390625 527.316406 L 14.820312 518.90625 C 19.84375 516.007812 24.863281 513.109375 29.886719 510.207031 L 29.886719 527.605469 Z M 16.140625 518.90625 L 29.222656 526.457031 L 29.222656 511.351562 L 16.140625 518.90625 " fill-opacity="1" fill-rule="evenodd"/><path fill="#38b6ff" d="M 86.179688 542.707031 L 99.257812 535.15625 L 86.179688 527.605469 Z M 100.085938 535.441406 L 85.515625 543.851562 L 85.515625 526.457031 L 100.582031 535.15625 L 100.085938 535.441406 " fill-opacity="1" fill-rule="evenodd"/><path fill="#38b6ff" d="M 128.230469 388.621094 L 142.796875 397.03125 C 133.195312 402.570312 123.589844 408.109375 113.992188 413.660156 C 109.082031 410.824219 104.171875 407.992188 99.257812 405.15625 C 108.859375 399.613281 118.464844 394.070312 128.066406 388.523438 Z M 141.476562 397.03125 L 128.066406 389.285156 L 100.582031 405.15625 L 113.992188 412.898438 L 141.476562 397.03125 " fill-opacity="1" fill-rule="evenodd"/><path fill="#38b6ff" d="M 114.324219 461.457031 L 127.40625 453.902344 L 114.324219 446.351562 Z M 128.230469 454.191406 L 113.660156 462.601562 L 113.660156 445.207031 L 128.726562 453.902344 L 128.230469 454.191406 " fill-opacity="1" fill-rule="evenodd"/><path fill="#38b6ff" d="M 170.117188 446.066406 L 155.550781 437.652344 C 160.574219 434.757812 165.59375 431.855469 170.613281 428.957031 L 170.613281 446.351562 Z M 156.871094 437.652344 L 169.953125 445.207031 L 169.953125 430.101562 L 156.871094 437.652344 " fill-opacity="1" fill-rule="evenodd"/><path fill="#38b6ff" d="M 198.761719 510.207031 L 211.839844 502.652344 L 198.761719 495.105469 Z M 212.667969 502.941406 L 198.097656 511.351562 L 198.097656 493.957031 L 213.160156 502.652344 L 212.667969 502.941406 " fill-opacity="1" fill-rule="evenodd"/><path fill="#38b6ff" d="M 142.300781 510.496094 L 170.613281 526.839844 L 170.613281 543.851562 C 161.015625 538.308594 151.40625 532.769531 141.804688 527.21875 L 141.804688 510.210938 Z M 169.953125 527.21875 L 142.46875 511.351562 L 142.46875 526.839844 L 169.953125 542.707031 L 169.953125 527.21875 " fill-opacity="1" fill-rule="evenodd"/><path fill="#38b6ff" d="M 226.738281 429.246094 L 255.050781 445.589844 L 255.050781 462.601562 C 245.449219 457.058594 235.84375 451.519531 226.246094 445.96875 L 226.246094 428.960938 Z M 254.390625 445.96875 L 226.90625 430.101562 L 226.90625 445.589844 L 254.390625 461.457031 L 254.390625 445.96875 " fill-opacity="1" fill-rule="evenodd"/><path fill="#38b6ff" d="M 255.050781 445.207031 L 268.136719 437.65625 L 255.050781 430.101562 Z M 268.960938 437.941406 L 254.390625 446.355469 L 254.390625 428.957031 L 269.453125 437.65625 L 268.960938 437.941406 " fill-opacity="1" fill-rule="evenodd"/><path fill="#38b6ff" d="M 283.03125 412.992188 L 311.34375 429.339844 L 311.34375 446.351562 C 301.742188 440.808594 292.136719 435.269531 282.535156 429.71875 L 282.535156 412.710938 Z M 310.683594 429.71875 L 283.199219 413.851562 L 283.199219 429.339844 L 310.683594 445.207031 L 310.683594 429.71875 " fill-opacity="1" fill-rule="evenodd"/><path fill="#38b6ff" d="M 255.050781 493.957031 L 268.132812 486.40625 L 255.050781 478.851562 Z M 268.960938 486.691406 L 254.390625 495.105469 L 254.390625 477.707031 L 269.453125 486.40625 L 268.960938 486.691406 " fill-opacity="1" fill-rule="evenodd"/><path fill="#38b6ff" d="M 282.703125 527.320312 L 268.136719 518.90625 C 273.15625 516.007812 278.179688 513.109375 283.199219 510.207031 L 283.199219 527.605469 Z M 269.457031 518.90625 L 282.535156 526.457031 L 282.535156 511.351562 L 269.457031 518.90625 " fill-opacity="1" fill-rule="evenodd"/><path fill="#0097b2" d="M 1016.480469 445.492188 L 988.164062 461.839844 L 988.164062 495.101562 C 997.769531 489.558594 1007.363281 484.003906 1016.972656 478.46875 L 1016.972656 445.207031 Z M 988.828125 462.21875 L 1016.3125 446.351562 L 1016.3125 478.089844 L 988.828125 493.957031 L 988.828125 462.21875 " fill-opacity="1" fill-rule="evenodd"/><path fill="#0097b2" d="M 988.660156 478.566406 L 1016.808594 462.316406 L 1016.480469 461.742188 L 988.335938 477.992188 L 988.660156 478.566406 " fill-opacity="1" fill-rule="evenodd"/><path fill="#0097b2" d="M 1016.480469 412.992188 L 987.835938 429.527344 C 997.550781 435.136719 1007.257812 440.75 1016.972656 446.351562 L 1016.972656 412.707031 Z M 989.15625 429.527344 L 1016.308594 413.851562 L 1016.308594 445.207031 L 989.15625 429.527344 " fill-opacity="1" fill-rule="evenodd"/><path fill="#0097b2" d="M 1016.808594 429.246094 L 1002.734375 421.117188 L 1002.402344 421.691406 L 1016.476562 429.816406 L 1016.808594 429.246094 " fill-opacity="1" fill-rule="evenodd"/><g clip-path="url(#8d94988ef5)"><path fill="#0097b2" d="M 706.707031 396.457031 L 679.550781 380.78125 L 706.707031 365.101562 Z M 678.726562 381.0625 L 707.371094 397.601562 L 707.371094 363.957031 C 697.65625 369.558594 687.945312 375.171875 678.234375 380.78125 L 678.726562 381.0625 " fill-opacity="1" fill-rule="evenodd"/></g><path fill="#0097b2" d="M 706.871094 380.492188 L 692.796875 388.617188 L 693.128906 389.1875 L 707.203125 381.0625 L 706.871094 380.492188 " fill-opacity="1" fill-rule="evenodd"/><g clip-path="url(#d430007046)"><path fill="#0097b2" d="M 679.222656 445.207031 L 706.378906 429.53125 L 679.222656 413.851562 Z M 707.203125 429.816406 L 678.5625 446.351562 L 678.5625 412.710938 C 688.273438 418.3125 697.984375 423.921875 707.699219 429.53125 L 707.203125 429.816406 " fill-opacity="1" fill-rule="evenodd"/></g><g clip-path="url(#da20b286b7)"><path fill="#0097b2" d="M 679.058594 429.242188 L 693.132812 437.371094 L 692.800781 437.941406 L 678.726562 429.816406 L 679.058594 429.242188 " fill-opacity="1" fill-rule="evenodd"/></g><g clip-path="url(#f2c5e7eaa7)"><path fill="#0097b2" d="M 679.222656 478.851562 L 706.378906 494.53125 L 679.222656 510.210938 Z M 707.203125 494.246094 L 678.5625 477.707031 L 678.5625 511.351562 C 688.273438 505.75 697.984375 500.140625 707.699219 494.53125 L 707.203125 494.246094 " fill-opacity="1" fill-rule="evenodd"/></g><g clip-path="url(#95e9ee22ad)"><path fill="#0097b2" d="M 679.058594 494.816406 L 693.132812 486.691406 L 692.800781 486.121094 L 678.726562 494.246094 L 679.058594 494.816406 " fill-opacity="1" fill-rule="evenodd"/></g><g clip-path="url(#970e4434a1)"><path fill="#0097b2" d="M 706.875 526.746094 L 678.5625 543.089844 L 678.5625 576.355469 C 688.164062 570.808594 697.761719 565.253906 707.371094 559.722656 L 707.371094 526.457031 Z M 679.222656 543.46875 L 706.707031 527.601562 L 706.707031 559.339844 L 679.222656 575.207031 L 679.222656 543.46875 " fill-opacity="1" fill-rule="evenodd"/></g><g clip-path="url(#ce9a6b9f7b)"><path fill="#0097b2" d="M 679.054688 559.816406 L 707.203125 543.566406 L 706.875 542.992188 L 678.726562 559.246094 L 679.054688 559.816406 " fill-opacity="1" fill-rule="evenodd"/></g><path fill="#0097b2" d="M 763.496094 429.246094 L 792.132812 445.78125 C 782.535156 451.328125 772.933594 456.875 763.328125 462.414062 C 753.722656 456.875 744.125 451.324219 734.523438 445.78125 C 744.125 440.238281 753.734375 434.703125 763.328125 429.148438 Z M 790.816406 445.78125 L 763.328125 429.910156 L 735.84375 445.78125 L 763.328125 461.648438 L 790.816406 445.78125 " fill-opacity="1" fill-rule="evenodd"/><path fill="#0097b2" d="M 749.09375 453.617188 L 777.238281 437.371094 L 777.566406 437.941406 L 749.421875 454.191406 L 749.09375 453.617188 " fill-opacity="1" fill-rule="evenodd"/><path fill="#0097b2" d="M 734.851562 446.351562 L 707.371094 462.21875 L 707.371094 493.957031 L 734.851562 478.089844 Z M 706.875 461.742188 L 735.515625 445.207031 L 735.515625 478.46875 C 725.917969 484.019531 716.3125 489.5625 706.707031 495.105469 C 706.714844 484.015625 706.726562 472.925781 706.707031 461.839844 L 706.875 461.742188 " fill-opacity="1" fill-rule="evenodd"/><path fill="#0097b2" d="M 706.875 477.996094 L 735.019531 461.746094 L 735.347656 462.316406 L 707.203125 478.566406 L 706.875 477.996094 " fill-opacity="1" fill-rule="evenodd"/><path fill="#0097b2" d="M 735.347656 380.496094 L 763.660156 396.839844 L 763.660156 430.101562 C 754.058594 424.558594 744.460938 419.007812 734.851562 413.46875 L 734.851562 380.210938 Z M 762.996094 397.222656 L 735.515625 381.351562 L 735.515625 413.089844 L 762.996094 428.957031 L 762.996094 397.222656 " fill-opacity="1" fill-rule="evenodd"/><path fill="#0097b2" d="M 763.164062 413.566406 L 735.019531 397.316406 L 735.347656 396.746094 L 763.496094 412.992188 L 763.164062 413.566406 " fill-opacity="1" fill-rule="evenodd"/><path fill="#0097b2" d="M 763.496094 461.746094 L 791.804688 478.089844 L 791.804688 511.351562 C 782.207031 505.808594 772.597656 500.273438 762.996094 494.71875 L 762.996094 461.460938 Z M 791.144531 478.46875 L 763.660156 462.601562 L 763.660156 494.339844 L 791.144531 510.207031 L 791.144531 478.46875 " fill-opacity="1" fill-rule="evenodd"/><path fill="#0097b2" d="M 791.3125 494.816406 L 763.164062 478.566406 L 763.496094 477.996094 L 791.640625 494.242188 L 791.3125 494.816406 " fill-opacity="1" fill-rule="evenodd"/><path fill="#0097b2" d="M 791.804688 445.207031 L 818.960938 429.53125 L 791.804688 413.851562 Z M 819.785156 429.816406 L 791.144531 446.351562 L 791.144531 412.710938 C 800.855469 418.3125 810.570312 423.921875 820.277344 429.53125 L 819.785156 429.816406 " fill-opacity="1" fill-rule="evenodd"/><path fill="#0097b2" d="M 791.640625 429.242188 L 805.714844 437.371094 L 805.382812 437.941406 L 791.308594 429.816406 L 791.640625 429.242188 " fill-opacity="1" fill-rule="evenodd"/><path fill="#0097b2" d="M 819.289062 462.601562 L 792.132812 478.28125 L 819.289062 493.957031 Z M 791.3125 477.996094 L 819.953125 461.457031 L 819.953125 495.101562 C 810.238281 489.5 800.527344 483.886719 790.816406 478.28125 L 791.3125 477.996094 " fill-opacity="1" fill-rule="evenodd"/><path fill="#0097b2" d="M 819.457031 478.566406 L 805.382812 470.441406 L 805.714844 469.867188 L 819.785156 477.996094 L 819.457031 478.566406 " fill-opacity="1" fill-rule="evenodd"/><path fill="#0097b2" d="M 762.996094 495.105469 L 735.84375 510.777344 L 762.996094 526.457031 Z M 735.019531 510.496094 L 763.660156 493.957031 L 763.660156 527.601562 C 753.945312 522 744.238281 516.390625 734.523438 510.777344 L 735.019531 510.496094 " fill-opacity="1" fill-rule="evenodd"/><path fill="#0097b2" d="M 763.164062 511.066406 L 749.089844 502.941406 L 749.421875 502.371094 L 763.496094 510.496094 L 763.164062 511.066406 " fill-opacity="1" fill-rule="evenodd"/><path fill="#0097b2" d="M 735.019531 543.566406 L 706.378906 527.03125 L 735.515625 510.210938 L 735.515625 543.851562 Z M 707.695312 527.03125 L 734.851562 542.707031 L 734.851562 511.351562 L 707.695312 527.03125 " fill-opacity="1" fill-rule="evenodd"/><path fill="#0097b2" d="M 735.347656 527.316406 L 721.277344 535.441406 L 720.945312 534.867188 L 735.019531 526.746094 L 735.347656 527.316406 " fill-opacity="1" fill-rule="evenodd"/><path fill="#0097b2" d="M 791.640625 510.496094 L 820.277344 527.03125 C 810.570312 532.640625 800.855469 538.25 791.144531 543.851562 L 791.144531 510.210938 Z M 818.960938 527.03125 L 791.804688 511.351562 L 791.804688 542.707031 L 818.960938 527.03125 " fill-opacity="1" fill-rule="evenodd"/><path fill="#0097b2" d="M 791.308594 526.746094 L 805.382812 518.621094 L 805.714844 519.191406 L 791.640625 527.320312 L 791.308594 526.746094 " fill-opacity="1" fill-rule="evenodd"/><path fill="#0097b2" d="M 847.765625 478.660156 L 820.28125 494.53125 L 847.765625 510.398438 L 875.253906 494.53125 Z M 819.457031 494.242188 L 847.765625 477.898438 C 857.363281 483.453125 866.972656 488.984375 876.574219 494.53125 C 866.972656 500.078125 857.375 505.628906 847.765625 511.160156 C 838.160156 505.628906 828.5625 500.074219 818.960938 494.53125 L 819.457031 494.242188 " fill-opacity="1" fill-rule="evenodd"/><path fill="#0097b2" d="M 861.675781 502.941406 L 833.53125 486.691406 L 833.859375 486.117188 L 862.003906 502.367188 L 861.675781 502.941406 " fill-opacity="1" fill-rule="evenodd"/><path fill="#0097b2" d="M 875.582031 430.101562 L 848.097656 445.96875 L 848.097656 477.707031 L 875.582031 461.839844 Z M 847.601562 445.492188 L 876.246094 428.960938 L 876.246094 462.222656 C 866.644531 467.769531 857.039062 473.3125 847.4375 478.851562 C 847.441406 467.765625 847.457031 456.675781 847.4375 445.589844 L 847.601562 445.492188 " fill-opacity="1" fill-rule="evenodd"/><path fill="#0097b2" d="M 847.601562 461.746094 L 875.75 445.492188 L 876.078125 446.066406 L 847.929688 462.316406 L 847.601562 461.746094 " fill-opacity="1" fill-rule="evenodd"/><path fill="#0097b2" d="M 903.730469 446.351562 L 876.574219 462.027344 L 903.730469 477.707031 Z M 875.75 461.746094 L 904.390625 445.207031 L 904.390625 478.851562 C 894.675781 473.246094 884.964844 467.636719 875.253906 462.027344 L 875.75 461.746094 " fill-opacity="1" fill-rule="evenodd"/><path fill="#0097b2" d="M 903.894531 462.316406 L 889.820312 454.191406 L 890.152344 453.617188 L 904.222656 461.746094 L 903.894531 462.316406 " fill-opacity="1" fill-rule="evenodd"/><path fill="#0097b2" d="M 904.222656 477.996094 L 932.535156 494.339844 L 932.535156 527.605469 C 922.933594 522.058594 913.328125 516.519531 903.730469 510.96875 L 903.730469 477.707031 Z M 931.875 494.71875 L 904.390625 478.851562 L 904.390625 510.589844 L 931.875 526.457031 L 931.875 494.71875 " fill-opacity="1" fill-rule="evenodd"/><path fill="#0097b2" d="M 932.039062 511.066406 L 903.894531 494.816406 L 904.222656 494.242188 L 932.371094 510.496094 L 932.039062 511.066406 " fill-opacity="1" fill-rule="evenodd"/><path fill="#0097b2" d="M 903.894531 543.566406 L 875.253906 527.03125 L 904.390625 510.210938 L 904.390625 543.851562 Z M 876.574219 527.03125 L 903.730469 542.707031 L 903.730469 511.351562 L 876.574219 527.03125 " fill-opacity="1" fill-rule="evenodd"/><path fill="#0097b2" d="M 904.222656 527.316406 L 890.152344 535.441406 L 889.820312 534.867188 L 903.894531 526.746094 L 904.222656 527.316406 " fill-opacity="1" fill-rule="evenodd"/><path fill="#0097b2" d="M 960.1875 478.566406 L 931.546875 462.027344 L 960.683594 445.207031 L 960.683594 478.851562 Z M 932.867188 462.027344 L 960.019531 477.707031 L 960.019531 446.351562 L 932.867188 462.027344 " fill-opacity="1" fill-rule="evenodd"/><path fill="#0097b2" d="M 960.515625 462.316406 L 946.445312 470.441406 L 946.113281 469.867188 L 960.1875 461.742188 L 960.515625 462.316406 " fill-opacity="1" fill-rule="evenodd"/><path fill="#0097b2" d="M 932.039062 429.816406 L 903.398438 413.28125 C 913.113281 407.675781 922.824219 402.0625 932.535156 396.457031 L 932.535156 430.101562 Z M 904.71875 413.28125 L 931.875 428.960938 L 931.875 397.601562 L 904.71875 413.28125 " fill-opacity="1" fill-rule="evenodd"/><path fill="#0097b2" d="M 932.371094 413.566406 L 918.296875 421.691406 L 917.964844 421.117188 L 932.039062 412.992188 L 932.371094 413.566406 " fill-opacity="1" fill-rule="evenodd"/><path fill="#0097b2" d="M 960.515625 477.996094 L 988.828125 494.339844 L 988.828125 527.605469 C 979.226562 522.058594 969.621094 516.519531 960.019531 510.96875 L 960.019531 477.707031 Z M 988.164062 494.71875 L 960.683594 478.851562 L 960.683594 510.589844 L 988.164062 526.457031 L 988.164062 494.71875 " fill-opacity="1" fill-rule="evenodd"/><path fill="#0097b2" d="M 988.332031 511.066406 L 960.1875 494.816406 L 960.515625 494.242188 L 988.660156 510.496094 L 988.332031 511.066406 " fill-opacity="1" fill-rule="evenodd"/><path fill="#0097b2" d="M 707.203125 396.746094 L 735.515625 413.089844 L 735.515625 430.101562 C 725.914062 424.558594 716.316406 419.003906 706.707031 413.46875 L 706.707031 396.457031 Z M 734.851562 413.46875 L 707.371094 397.601562 L 707.371094 413.089844 L 734.851562 428.957031 L 734.851562 413.46875 " fill-opacity="1" fill-rule="evenodd"/><g clip-path="url(#48ec20e215)"><path fill="#0097b2" d="M 735.019531 381.066406 L 720.453125 372.652344 L 735.515625 363.957031 L 735.515625 381.351562 Z M 721.773438 372.652344 L 734.851562 380.207031 L 734.851562 365.105469 L 721.773438 372.652344 " fill-opacity="1" fill-rule="evenodd"/></g><path fill="#0097b2" d="M 706.871094 462.316406 L 692.304688 453.902344 C 697.328125 451.007812 702.347656 448.109375 707.371094 445.207031 L 707.371094 462.601562 Z M 693.628906 453.902344 L 706.707031 461.457031 L 706.707031 446.351562 L 693.628906 453.902344 " fill-opacity="1" fill-rule="evenodd"/><path fill="#0097b2" d="M 735.515625 493.957031 L 748.597656 486.40625 L 735.515625 478.851562 Z M 749.421875 486.691406 L 734.851562 495.105469 L 734.851562 477.707031 L 749.917969 486.40625 L 749.421875 486.691406 " fill-opacity="1" fill-rule="evenodd"/><path fill="#0097b2" d="M 706.871094 527.316406 L 692.304688 518.90625 C 697.328125 516.007812 702.347656 513.109375 707.371094 510.207031 L 707.371094 527.605469 Z M 693.625 518.90625 L 706.707031 526.457031 L 706.707031 511.351562 L 693.625 518.90625 " fill-opacity="1" fill-rule="evenodd"/><path fill="#0097b2" d="M 763.660156 542.707031 L 776.742188 535.15625 L 763.660156 527.605469 Z M 777.570312 535.441406 L 762.996094 543.851562 L 762.996094 526.457031 L 778.0625 535.15625 L 777.570312 535.441406 " fill-opacity="1" fill-rule="evenodd"/><path fill="#0097b2" d="M 805.714844 388.621094 L 820.28125 397.03125 C 810.679688 402.570312 801.074219 408.109375 791.476562 413.660156 C 786.566406 410.824219 781.65625 407.992188 776.742188 405.15625 C 786.34375 399.613281 795.949219 394.070312 805.550781 388.523438 Z M 818.960938 397.03125 L 805.550781 389.285156 L 778.0625 405.15625 L 791.476562 412.898438 L 818.960938 397.03125 " fill-opacity="1" fill-rule="evenodd"/><path fill="#0097b2" d="M 791.804688 461.457031 L 804.886719 453.902344 L 791.804688 446.351562 Z M 805.714844 454.191406 L 791.144531 462.601562 L 791.144531 445.207031 L 806.207031 453.902344 L 805.714844 454.191406 " fill-opacity="1" fill-rule="evenodd"/><path fill="#0097b2" d="M 847.601562 446.066406 L 833.035156 437.652344 C 838.058594 434.757812 843.078125 431.855469 848.097656 428.957031 L 848.097656 446.351562 Z M 834.355469 437.652344 L 847.4375 445.207031 L 847.4375 430.101562 L 834.355469 437.652344 " fill-opacity="1" fill-rule="evenodd"/><path fill="#0097b2" d="M 876.246094 510.207031 L 889.324219 502.652344 L 876.246094 495.105469 Z M 890.148438 502.941406 L 875.582031 511.351562 L 875.582031 493.957031 L 890.644531 502.652344 L 890.148438 502.941406 " fill-opacity="1" fill-rule="evenodd"/><path fill="#0097b2" d="M 819.785156 510.496094 L 848.097656 526.839844 L 848.097656 543.851562 C 838.496094 538.308594 828.890625 532.769531 819.289062 527.21875 L 819.289062 510.210938 Z M 847.4375 527.21875 L 819.953125 511.351562 L 819.953125 526.839844 L 847.4375 542.707031 L 847.4375 527.21875 " fill-opacity="1" fill-rule="evenodd"/><path fill="#0097b2" d="M 904.222656 429.246094 L 932.535156 445.589844 L 932.535156 462.601562 C 922.933594 457.058594 913.328125 451.519531 903.730469 445.96875 L 903.730469 428.960938 Z M 931.875 445.96875 L 904.390625 430.101562 L 904.390625 445.589844 L 931.875 461.457031 L 931.875 445.96875 " fill-opacity="1" fill-rule="evenodd"/><path fill="#0097b2" d="M 932.535156 445.207031 L 945.617188 437.65625 L 932.535156 430.101562 Z M 946.445312 437.941406 L 931.875 446.355469 L 931.875 428.957031 L 946.9375 437.65625 L 946.445312 437.941406 " fill-opacity="1" fill-rule="evenodd"/><path fill="#0097b2" d="M 960.515625 412.992188 L 988.828125 429.339844 L 988.828125 446.351562 C 979.226562 440.808594 969.617188 435.269531 960.019531 429.71875 L 960.019531 412.710938 Z M 988.164062 429.71875 L 960.683594 413.851562 L 960.683594 429.339844 L 988.164062 445.207031 L 988.164062 429.71875 " fill-opacity="1" fill-rule="evenodd"/><path fill="#0097b2" d="M 932.535156 493.957031 L 945.617188 486.40625 L 932.535156 478.851562 Z M 946.445312 486.691406 L 931.875 495.105469 L 931.875 477.707031 L 946.9375 486.40625 L 946.445312 486.691406 " fill-opacity="1" fill-rule="evenodd"/><path fill="#0097b2" d="M 960.1875 527.320312 L 945.617188 518.90625 C 950.640625 516.007812 955.664062 513.109375 960.683594 510.207031 L 960.683594 527.605469 Z M 946.9375 518.90625 L 960.019531 526.457031 L 960.019531 511.351562 L 946.9375 518.90625 " fill-opacity="1" fill-rule="evenodd"/><g clip-path="url(#a963254d1c)"><path fill="#5271ff" d="M 339.984375 445.492188 L 368.300781 461.839844 L 368.300781 495.101562 C 358.695312 489.558594 349.101562 484.003906 339.492188 478.46875 L 339.492188 445.207031 Z M 367.636719 462.21875 L 340.152344 446.351562 L 340.152344 478.089844 L 367.636719 493.957031 L 367.636719 462.21875 " fill-opacity="1" fill-rule="evenodd"/></g><g clip-path="url(#9df8c625fe)"><path fill="#5271ff" d="M 367.804688 478.566406 L 339.65625 462.316406 L 339.984375 461.742188 L 368.128906 477.992188 L 367.804688 478.566406 " fill-opacity="1" fill-rule="evenodd"/></g><g clip-path="url(#17a6338b22)"><path fill="#5271ff" d="M 339.984375 412.992188 L 368.632812 429.527344 C 358.914062 435.136719 349.207031 440.75 339.492188 446.351562 L 339.492188 412.707031 Z M 367.308594 429.527344 L 340.15625 413.851562 L 340.15625 445.207031 L 367.308594 429.527344 " fill-opacity="1" fill-rule="evenodd"/></g><g clip-path="url(#0fbb88bb1d)"><path fill="#5271ff" d="M 339.65625 429.246094 L 353.730469 421.117188 L 354.0625 421.691406 L 339.988281 429.816406 L 339.65625 429.246094 " fill-opacity="1" fill-rule="evenodd"/></g><g clip-path="url(#75f76dd218)"><path fill="#5271ff" d="M 649.757812 396.457031 L 676.914062 380.78125 L 649.757812 365.101562 Z M 677.738281 381.0625 L 649.09375 397.601562 L 649.09375 363.957031 C 658.808594 369.558594 668.519531 375.171875 678.230469 380.78125 L 677.738281 381.0625 " fill-opacity="1" fill-rule="evenodd"/></g><path fill="#5271ff" d="M 649.59375 380.492188 L 663.667969 388.617188 L 663.335938 389.1875 L 649.261719 381.0625 L 649.59375 380.492188 " fill-opacity="1" fill-rule="evenodd"/><path fill="#5271ff" d="M 677.242188 445.207031 L 650.085938 429.53125 L 677.242188 413.851562 Z M 649.261719 429.816406 L 677.902344 446.351562 L 677.902344 412.710938 C 668.191406 418.3125 658.480469 423.921875 648.765625 429.53125 L 649.261719 429.816406 " fill-opacity="1" fill-rule="evenodd"/><path fill="#5271ff" d="M 677.40625 429.242188 L 663.332031 437.371094 L 663.664062 437.941406 L 677.738281 429.816406 L 677.40625 429.242188 " fill-opacity="1" fill-rule="evenodd"/><path fill="#5271ff" d="M 677.242188 478.851562 L 650.085938 494.53125 L 677.242188 510.210938 Z M 649.261719 494.246094 L 677.902344 477.707031 L 677.902344 511.351562 C 668.191406 505.75 658.480469 500.140625 648.765625 494.53125 L 649.261719 494.246094 " fill-opacity="1" fill-rule="evenodd"/><path fill="#5271ff" d="M 677.40625 494.816406 L 663.332031 486.691406 L 663.664062 486.121094 L 677.738281 494.246094 L 677.40625 494.816406 " fill-opacity="1" fill-rule="evenodd"/><g clip-path="url(#a5cc287987)"><path fill="#5271ff" d="M 649.589844 526.746094 L 677.902344 543.089844 L 677.902344 576.355469 C 668.304688 570.808594 658.703125 565.253906 649.09375 559.722656 L 649.09375 526.457031 Z M 677.242188 543.46875 L 649.757812 527.601562 L 649.757812 559.339844 L 677.242188 575.207031 L 677.242188 543.46875 " fill-opacity="1" fill-rule="evenodd"/></g><path fill="#5271ff" d="M 677.410156 559.816406 L 649.261719 543.566406 L 649.589844 542.992188 L 677.738281 559.246094 L 677.410156 559.816406 " fill-opacity="1" fill-rule="evenodd"/><path fill="#5271ff" d="M 592.96875 429.246094 L 564.332031 445.78125 C 573.929688 451.328125 583.53125 456.875 593.136719 462.414062 C 602.742188 456.875 612.339844 451.324219 621.941406 445.78125 C 612.339844 440.238281 602.734375 434.703125 593.136719 429.148438 Z M 565.648438 445.78125 L 593.136719 429.910156 L 620.621094 445.78125 L 593.136719 461.648438 L 565.648438 445.78125 " fill-opacity="1" fill-rule="evenodd"/><path fill="#5271ff" d="M 607.371094 453.617188 L 579.226562 437.371094 L 578.898438 437.941406 L 607.042969 454.191406 L 607.371094 453.617188 " fill-opacity="1" fill-rule="evenodd"/><path fill="#5271ff" d="M 621.613281 446.351562 L 649.09375 462.21875 L 649.09375 493.957031 L 621.613281 478.089844 Z M 649.589844 461.742188 L 620.949219 445.207031 L 620.949219 478.46875 C 630.550781 484.019531 640.152344 489.5625 649.757812 495.105469 C 649.75 484.015625 649.738281 472.925781 649.757812 461.839844 L 649.589844 461.742188 " fill-opacity="1" fill-rule="evenodd"/><path fill="#5271ff" d="M 649.589844 477.996094 L 621.445312 461.746094 L 621.117188 462.316406 L 649.261719 478.566406 L 649.589844 477.996094 " fill-opacity="1" fill-rule="evenodd"/><path fill="#5271ff" d="M 621.117188 380.496094 L 592.804688 396.839844 L 592.804688 430.101562 C 602.40625 424.558594 612.003906 419.007812 621.613281 413.46875 L 621.613281 380.210938 Z M 593.46875 397.222656 L 620.949219 381.351562 L 620.949219 413.089844 L 593.46875 428.957031 L 593.46875 397.222656 " fill-opacity="1" fill-rule="evenodd"/><path fill="#5271ff" d="M 593.300781 413.566406 L 621.445312 397.316406 L 621.117188 396.746094 L 592.96875 412.992188 L 593.300781 413.566406 " fill-opacity="1" fill-rule="evenodd"/><path fill="#5271ff" d="M 592.96875 461.746094 L 564.660156 478.089844 L 564.660156 511.351562 C 574.261719 505.808594 583.867188 500.273438 593.46875 494.71875 L 593.46875 461.460938 Z M 565.320312 478.46875 L 592.804688 462.601562 L 592.804688 494.339844 L 565.320312 510.207031 L 565.320312 478.46875 " fill-opacity="1" fill-rule="evenodd"/><path fill="#5271ff" d="M 565.152344 494.816406 L 593.300781 478.566406 L 592.96875 477.996094 L 564.824219 494.242188 L 565.152344 494.816406 " fill-opacity="1" fill-rule="evenodd"/><path fill="#5271ff" d="M 564.660156 445.207031 L 537.503906 429.53125 L 564.660156 413.851562 Z M 536.679688 429.816406 L 565.320312 446.351562 L 565.320312 412.710938 C 555.609375 418.3125 545.894531 423.921875 536.1875 429.53125 L 536.679688 429.816406 " fill-opacity="1" fill-rule="evenodd"/><path fill="#5271ff" d="M 564.824219 429.242188 L 550.75 437.371094 L 551.082031 437.941406 L 565.15625 429.816406 L 564.824219 429.242188 " fill-opacity="1" fill-rule="evenodd"/><path fill="#5271ff" d="M 537.175781 462.601562 L 564.332031 478.28125 L 537.175781 493.957031 Z M 565.152344 477.996094 L 536.511719 461.457031 L 536.511719 495.101562 C 546.226562 489.5 555.9375 483.886719 565.648438 478.28125 L 565.152344 477.996094 " fill-opacity="1" fill-rule="evenodd"/><path fill="#5271ff" d="M 537.007812 478.566406 L 551.082031 470.441406 L 550.75 469.867188 L 536.679688 477.996094 L 537.007812 478.566406 " fill-opacity="1" fill-rule="evenodd"/><path fill="#5271ff" d="M 593.46875 495.105469 L 620.621094 510.777344 L 593.46875 526.457031 Z M 621.445312 510.496094 L 592.804688 493.957031 L 592.804688 527.601562 C 602.519531 522 612.226562 516.390625 621.941406 510.777344 L 621.445312 510.496094 " fill-opacity="1" fill-rule="evenodd"/><path fill="#5271ff" d="M 593.300781 511.066406 L 607.375 502.941406 L 607.042969 502.371094 L 592.96875 510.496094 L 593.300781 511.066406 " fill-opacity="1" fill-rule="evenodd"/><path fill="#5271ff" d="M 621.445312 543.566406 L 650.085938 527.03125 L 620.949219 510.210938 L 620.949219 543.851562 Z M 648.769531 527.03125 L 621.613281 542.707031 L 621.613281 511.351562 L 648.769531 527.03125 " fill-opacity="1" fill-rule="evenodd"/><path fill="#5271ff" d="M 621.117188 527.316406 L 635.1875 535.441406 L 635.519531 534.867188 L 621.445312 526.746094 L 621.117188 527.316406 " fill-opacity="1" fill-rule="evenodd"/><path fill="#5271ff" d="M 564.824219 510.496094 L 536.1875 527.03125 C 545.894531 532.640625 555.609375 538.25 565.320312 543.851562 L 565.320312 510.210938 Z M 537.503906 527.03125 L 564.660156 511.351562 L 564.660156 542.707031 L 537.503906 527.03125 " fill-opacity="1" fill-rule="evenodd"/><path fill="#5271ff" d="M 565.15625 526.746094 L 551.082031 518.621094 L 550.75 519.191406 L 564.824219 527.320312 L 565.15625 526.746094 " fill-opacity="1" fill-rule="evenodd"/><path fill="#5271ff" d="M 508.699219 478.660156 L 536.183594 494.53125 L 508.699219 510.398438 L 481.210938 494.53125 Z M 537.007812 494.242188 L 508.699219 477.898438 C 499.101562 483.453125 489.492188 488.984375 479.890625 494.53125 C 489.492188 500.078125 499.089844 505.628906 508.699219 511.160156 C 518.304688 505.628906 527.902344 500.074219 537.503906 494.53125 L 537.007812 494.242188 " fill-opacity="1" fill-rule="evenodd"/><path fill="#5271ff" d="M 494.789062 502.941406 L 522.933594 486.691406 L 522.605469 486.117188 L 494.460938 502.367188 L 494.789062 502.941406 " fill-opacity="1" fill-rule="evenodd"/><path fill="#5271ff" d="M 480.882812 430.101562 L 508.367188 445.96875 L 508.367188 477.707031 L 480.882812 461.839844 Z M 508.863281 445.492188 L 480.21875 428.960938 L 480.21875 462.222656 C 489.820312 467.769531 499.425781 473.3125 509.027344 478.851562 C 509.023438 467.765625 509.011719 456.675781 509.027344 445.589844 L 508.863281 445.492188 " fill-opacity="1" fill-rule="evenodd"/><path fill="#5271ff" d="M 508.863281 461.746094 L 480.714844 445.492188 L 480.386719 446.066406 L 508.535156 462.316406 L 508.863281 461.746094 " fill-opacity="1" fill-rule="evenodd"/><path fill="#5271ff" d="M 452.738281 446.351562 L 479.890625 462.027344 L 452.738281 477.707031 Z M 480.714844 461.746094 L 452.074219 445.207031 L 452.074219 478.851562 C 461.789062 473.246094 471.5 467.636719 481.210938 462.027344 L 480.714844 461.746094 " fill-opacity="1" fill-rule="evenodd"/><path fill="#5271ff" d="M 452.574219 462.316406 L 466.644531 454.191406 L 466.3125 453.617188 L 452.242188 461.746094 L 452.574219 462.316406 " fill-opacity="1" fill-rule="evenodd"/><path fill="#5271ff" d="M 452.242188 477.996094 L 423.929688 494.339844 L 423.929688 527.605469 C 433.53125 522.058594 443.136719 516.519531 452.738281 510.96875 L 452.738281 477.707031 Z M 424.589844 494.71875 L 452.074219 478.851562 L 452.074219 510.589844 L 424.589844 526.457031 L 424.589844 494.71875 " fill-opacity="1" fill-rule="evenodd"/><path fill="#5271ff" d="M 424.425781 511.066406 L 452.570312 494.816406 L 452.242188 494.242188 L 424.09375 510.496094 L 424.425781 511.066406 " fill-opacity="1" fill-rule="evenodd"/><path fill="#5271ff" d="M 452.570312 543.566406 L 481.210938 527.03125 L 452.074219 510.210938 L 452.074219 543.851562 Z M 479.890625 527.03125 L 452.738281 542.707031 L 452.738281 511.351562 L 479.890625 527.03125 " fill-opacity="1" fill-rule="evenodd"/><path fill="#5271ff" d="M 452.242188 527.316406 L 466.3125 535.441406 L 466.644531 534.867188 L 452.574219 526.746094 L 452.242188 527.316406 " fill-opacity="1" fill-rule="evenodd"/><path fill="#5271ff" d="M 396.277344 478.566406 L 424.921875 462.027344 L 395.78125 445.207031 L 395.78125 478.851562 Z M 423.597656 462.027344 L 396.445312 477.707031 L 396.445312 446.351562 L 423.597656 462.027344 " fill-opacity="1" fill-rule="evenodd"/><path fill="#5271ff" d="M 395.949219 462.316406 L 410.019531 470.441406 L 410.351562 469.867188 L 396.277344 461.742188 L 395.949219 462.316406 " fill-opacity="1" fill-rule="evenodd"/><path fill="#5271ff" d="M 424.425781 429.816406 L 453.066406 413.28125 C 443.351562 407.675781 433.644531 402.0625 423.929688 396.457031 L 423.929688 430.101562 Z M 451.746094 413.28125 L 424.589844 428.960938 L 424.589844 397.601562 L 451.746094 413.28125 " fill-opacity="1" fill-rule="evenodd"/><path fill="#5271ff" d="M 424.09375 413.566406 L 438.167969 421.691406 L 438.5 421.117188 L 424.425781 412.992188 L 424.09375 413.566406 " fill-opacity="1" fill-rule="evenodd"/><path fill="#5271ff" d="M 395.949219 477.996094 L 367.636719 494.339844 L 367.636719 527.605469 C 377.238281 522.058594 386.84375 516.519531 396.445312 510.96875 L 396.445312 477.707031 Z M 368.300781 494.71875 L 395.78125 478.851562 L 395.78125 510.589844 L 368.300781 526.457031 L 368.300781 494.71875 " fill-opacity="1" fill-rule="evenodd"/><path fill="#5271ff" d="M 368.132812 511.066406 L 396.277344 494.816406 L 395.949219 494.242188 L 367.804688 510.496094 L 368.132812 511.066406 " fill-opacity="1" fill-rule="evenodd"/><path fill="#5271ff" d="M 649.261719 396.746094 L 620.949219 413.089844 L 620.949219 430.101562 C 630.550781 424.558594 640.148438 419.003906 649.757812 413.46875 L 649.757812 396.457031 Z M 621.613281 413.46875 L 649.09375 397.601562 L 649.09375 413.089844 L 621.613281 428.957031 L 621.613281 413.46875 " fill-opacity="1" fill-rule="evenodd"/><g clip-path="url(#8d35538ee4)"><path fill="#5271ff" d="M 621.445312 381.066406 L 636.015625 372.652344 L 620.949219 363.957031 L 620.949219 381.351562 Z M 634.695312 372.652344 L 621.613281 380.207031 L 621.613281 365.105469 L 634.695312 372.652344 " fill-opacity="1" fill-rule="evenodd"/></g><path fill="#5271ff" d="M 649.59375 462.316406 L 664.160156 453.902344 C 659.136719 451.007812 654.117188 448.109375 649.09375 445.207031 L 649.09375 462.601562 Z M 662.839844 453.902344 L 649.757812 461.457031 L 649.757812 446.351562 L 662.839844 453.902344 " fill-opacity="1" fill-rule="evenodd"/><path fill="#5271ff" d="M 620.949219 493.957031 L 607.871094 486.40625 L 620.949219 478.851562 Z M 607.042969 486.691406 L 621.613281 495.105469 L 621.613281 477.707031 L 606.546875 486.40625 L 607.042969 486.691406 " fill-opacity="1" fill-rule="evenodd"/><path fill="#5271ff" d="M 649.59375 527.316406 L 664.160156 518.90625 C 659.136719 516.007812 654.117188 513.109375 649.09375 510.207031 L 649.09375 527.605469 Z M 662.839844 518.90625 L 649.757812 526.457031 L 649.757812 511.351562 L 662.839844 518.90625 " fill-opacity="1" fill-rule="evenodd"/><path fill="#5271ff" d="M 592.804688 542.707031 L 579.722656 535.15625 L 592.804688 527.605469 Z M 578.894531 535.441406 L 593.46875 543.851562 L 593.46875 526.457031 L 578.402344 535.15625 L 578.894531 535.441406 " fill-opacity="1" fill-rule="evenodd"/><path fill="#5271ff" d="M 550.75 388.621094 L 536.183594 397.03125 C 545.789062 402.570312 555.390625 408.109375 564.988281 413.660156 C 569.898438 410.824219 574.808594 407.992188 579.722656 405.15625 C 570.121094 399.613281 560.515625 394.070312 550.914062 388.523438 Z M 537.503906 397.03125 L 550.914062 389.285156 L 578.402344 405.15625 L 564.988281 412.898438 L 537.503906 397.03125 " fill-opacity="1" fill-rule="evenodd"/><path fill="#5271ff" d="M 564.660156 461.457031 L 551.578125 453.902344 L 564.660156 446.351562 Z M 550.75 454.191406 L 565.320312 462.601562 L 565.320312 445.207031 L 550.257812 453.902344 L 550.75 454.191406 " fill-opacity="1" fill-rule="evenodd"/><path fill="#5271ff" d="M 508.863281 446.066406 L 523.429688 437.652344 C 518.40625 434.757812 513.386719 431.855469 508.367188 428.957031 L 508.367188 446.351562 Z M 522.109375 437.652344 L 509.027344 445.207031 L 509.027344 430.101562 L 522.109375 437.652344 " fill-opacity="1" fill-rule="evenodd"/><path fill="#5271ff" d="M 480.21875 510.207031 L 467.140625 502.652344 L 480.21875 495.105469 Z M 466.316406 502.941406 L 480.882812 511.351562 L 480.882812 493.957031 L 465.820312 502.652344 L 466.316406 502.941406 " fill-opacity="1" fill-rule="evenodd"/><path fill="#5271ff" d="M 536.679688 510.496094 L 508.367188 526.839844 L 508.367188 543.851562 C 517.96875 538.308594 527.574219 532.769531 537.175781 527.21875 L 537.175781 510.210938 Z M 509.027344 527.21875 L 536.511719 511.351562 L 536.511719 526.839844 L 509.027344 542.707031 L 509.027344 527.21875 " fill-opacity="1" fill-rule="evenodd"/><path fill="#5271ff" d="M 452.242188 429.246094 L 423.929688 445.589844 L 423.929688 462.601562 C 433.53125 457.058594 443.136719 451.519531 452.738281 445.96875 L 452.738281 428.960938 Z M 424.589844 445.96875 L 452.074219 430.101562 L 452.074219 445.589844 L 424.589844 461.457031 L 424.589844 445.96875 " fill-opacity="1" fill-rule="evenodd"/><path fill="#5271ff" d="M 423.929688 445.207031 L 410.847656 437.65625 L 423.929688 430.101562 Z M 410.019531 437.941406 L 424.589844 446.355469 L 424.589844 428.957031 L 409.527344 437.65625 L 410.019531 437.941406 " fill-opacity="1" fill-rule="evenodd"/><path fill="#5271ff" d="M 395.949219 412.992188 L 367.636719 429.339844 L 367.636719 446.351562 C 377.238281 440.808594 386.847656 435.269531 396.445312 429.71875 L 396.445312 412.710938 Z M 368.300781 429.71875 L 395.78125 413.851562 L 395.78125 429.339844 L 368.300781 445.207031 L 368.300781 429.71875 " fill-opacity="1" fill-rule="evenodd"/><path fill="#5271ff" d="M 423.929688 493.957031 L 410.847656 486.40625 L 423.929688 478.851562 Z M 410.019531 486.691406 L 424.589844 495.105469 L 424.589844 477.707031 L 409.527344 486.40625 L 410.019531 486.691406 " fill-opacity="1" fill-rule="evenodd"/><path fill="#5271ff" d="M 396.277344 527.320312 L 410.847656 518.90625 C 405.824219 516.007812 400.800781 513.109375 395.78125 510.207031 L 395.78125 527.605469 Z M 409.527344 518.90625 L 396.445312 526.457031 L 396.445312 511.351562 L 409.527344 518.90625 " fill-opacity="1" fill-rule="evenodd"/><g mask="url(#aff6c50828)"><g transform="matrix(1, 0, 0, 1, 908, 112)"><g clip-path="url(#d03fc24b0c)"><g clip-path="url(#d042395fac)"><g fill="#bfd2f8" fill-opacity="1"><g transform="translate(60.487648, 279.814689)"><g><path d="M -16.71875 -26.265625 C -19.6875 -26.265625 -22.0625 -25.597656 -23.84375 -24.265625 C -25.625 -22.929688 -26.515625 -20.953125 -26.515625 -18.328125 C -26.515625 -17.460938 -26.484375 -16.664062 -26.421875 -15.9375 C -26.359375 -15.207031 -26.285156 -14.601562 -26.203125 -14.125 L -8.84375 -14.125 C -8.457031 -14.726562 -8.132812 -15.515625 -7.875 -16.484375 C -7.613281 -17.453125 -7.484375 -18.429688 -7.484375 -19.421875 C -7.484375 -23.984375 -10.5625 -26.265625 -16.71875 -26.265625 Z M -16.96875 -36.078125 C -14.34375 -36.078125 -11.953125 -35.753906 -9.796875 -35.109375 C -7.648438 -34.460938 -5.800781 -33.515625 -4.25 -32.265625 C -2.707031 -31.015625 -1.503906 -29.460938 -0.640625 -27.609375 C 0.210938 -25.765625 0.640625 -23.640625 0.640625 -21.234375 C 0.640625 -19.898438 0.507812 -18.648438 0.25 -17.484375 C 0 -16.328125 -0.363281 -15.207031 -0.84375 -14.125 L 11.9375 -14.125 L 11.9375 -4.515625 L -32.78125 -4.515625 C -33.039062 -5.378906 -33.285156 -6.367188 -33.515625 -7.484375 C -33.753906 -8.597656 -33.957031 -9.769531 -34.125 -11 C -34.300781 -12.226562 -34.441406 -13.476562 -34.546875 -14.75 C -34.660156 -16.019531 -34.71875 -17.234375 -34.71875 -18.390625 C -34.71875 -21.191406 -34.296875 -23.6875 -33.453125 -25.875 C -32.617188 -28.070312 -31.4375 -29.921875 -29.90625 -31.421875 C -28.382812 -32.929688 -26.523438 -34.082031 -24.328125 -34.875 C -22.128906 -35.675781 -19.675781 -36.078125 -16.96875 -36.078125 Z M -16.96875 -36.078125 "/></g></g></g></g><g fill="#bfd2f8" fill-opacity="1"><g transform="translate(60.487648, 240.836476)"><g><path d="M -17.03125 -36.265625 C -14.363281 -36.265625 -11.921875 -35.875 -9.703125 -35.09375 C -7.492188 -34.320312 -5.601562 -33.207031 -4.03125 -31.75 C -2.457031 -30.289062 -1.238281 -28.535156 -0.375 -26.484375 C 0.476562 -24.441406 0.90625 -22.15625 0.90625 -19.625 C 0.90625 -17.125 0.476562 -14.851562 -0.375 -12.8125 C -1.238281 -10.769531 -2.457031 -9.015625 -4.03125 -7.546875 C -5.601562 -6.085938 -7.492188 -4.945312 -9.703125 -4.125 C -11.921875 -3.3125 -14.363281 -2.90625 -17.03125 -2.90625 C -19.695312 -2.90625 -22.128906 -3.320312 -24.328125 -4.15625 C -26.523438 -5 -28.394531 -6.160156 -29.9375 -7.640625 C -31.488281 -9.128906 -32.691406 -10.894531 -33.546875 -12.9375 C -34.410156 -14.976562 -34.84375 -17.207031 -34.84375 -19.625 C -34.84375 -22.070312 -34.410156 -24.316406 -33.546875 -26.359375 C -32.691406 -28.398438 -31.488281 -30.148438 -29.9375 -31.609375 C -28.394531 -33.078125 -26.523438 -34.21875 -24.328125 -35.03125 C -22.128906 -35.851562 -19.695312 -36.265625 -17.03125 -36.265625 Z M -17.03125 -26.453125 C -20 -26.453125 -22.332031 -25.859375 -24.03125 -24.671875 C -25.738281 -23.492188 -26.59375 -21.8125 -26.59375 -19.625 C -26.59375 -17.425781 -25.738281 -15.722656 -24.03125 -14.515625 C -22.332031 -13.316406 -20 -12.71875 -17.03125 -12.71875 C -14.0625 -12.71875 -11.707031 -13.316406 -9.96875 -14.515625 C -8.226562 -15.722656 -7.359375 -17.425781 -7.359375 -19.625 C -7.359375 -21.8125 -8.226562 -23.492188 -9.96875 -24.671875 C -11.707031 -25.859375 -14.0625 -26.453125 -17.03125 -26.453125 Z M -17.03125 -26.453125 "/></g></g></g><g fill="#bfd2f8" fill-opacity="1"><g transform="translate(60.487648, 201.664659)"><g><path d="M -25.421875 -24.96875 C -25.640625 -24.113281 -25.863281 -23.101562 -26.09375 -21.9375 C -26.332031 -20.78125 -26.453125 -19.535156 -26.453125 -18.203125 C -26.453125 -17.597656 -26.398438 -16.875 -26.296875 -16.03125 C -26.191406 -15.195312 -26.070312 -14.5625 -25.9375 -14.125 L 0 -14.125 L 0 -4.515625 L -32.140625 -4.515625 C -32.742188 -6.234375 -33.3125 -8.265625 -33.84375 -10.609375 C -34.382812 -12.953125 -34.65625 -15.566406 -34.65625 -18.453125 C -34.65625 -18.972656 -34.617188 -19.597656 -34.546875 -20.328125 C -34.484375 -21.054688 -34.398438 -21.785156 -34.296875 -22.515625 C -34.191406 -23.253906 -34.0625 -23.988281 -33.90625 -24.71875 C -33.757812 -25.445312 -33.578125 -26.070312 -33.359375 -26.59375 Z M -25.421875 -24.96875 "/></g></g></g><g fill="#bfd2f8" fill-opacity="1"><g transform="translate(60.487648, 174.431537)"><g><path d="M -42.390625 -4.1875 L -43.953125 -13.8125 L -33.9375 -13.8125 L -33.9375 -25.359375 L -25.9375 -25.359375 L -25.9375 -13.8125 L -14 -13.8125 C -11.976562 -13.8125 -10.363281 -14.164062 -9.15625 -14.875 C -7.957031 -15.582031 -7.359375 -17.015625 -7.359375 -19.171875 C -7.359375 -20.203125 -7.453125 -21.265625 -7.640625 -22.359375 C -7.835938 -23.453125 -8.109375 -24.453125 -8.453125 -25.359375 L -0.96875 -26.71875 C -0.5 -25.550781 -0.09375 -24.257812 0.25 -22.84375 C 0.601562 -21.425781 0.78125 -19.679688 0.78125 -17.609375 C 0.78125 -14.992188 0.425781 -12.820312 -0.28125 -11.09375 C -1 -9.375 -1.988281 -8 -3.25 -6.96875 C -4.519531 -5.9375 -6.054688 -5.210938 -7.859375 -4.796875 C -9.671875 -4.390625 -11.675781 -4.1875 -13.875 -4.1875 Z M -42.390625 -4.1875 "/></g></g></g><g fill="#bfd2f8" fill-opacity="1"><g transform="translate(60.487648, 145.778676)"><g><path d="M -50.078125 -19.234375 C -50.078125 -21.035156 -49.894531 -22.6875 -49.53125 -24.1875 C -49.164062 -25.695312 -48.8125 -26.863281 -48.46875 -27.6875 L -40.78125 -25.8125 C -41.164062 -24.945312 -41.457031 -24.007812 -41.65625 -23 C -41.851562 -21.988281 -41.953125 -21.054688 -41.953125 -20.203125 C -41.953125 -19.035156 -41.789062 -18.050781 -41.46875 -17.25 C -41.144531 -16.457031 -40.703125 -15.835938 -40.140625 -15.390625 C -39.578125 -14.941406 -38.90625 -14.617188 -38.125 -14.421875 C -37.351562 -14.222656 -36.519531 -14.125 -35.625 -14.125 L -33.9375 -14.125 L -33.9375 -26 L -25.9375 -26 L -25.9375 -14.125 L 0 -14.125 L 0 -4.515625 L -35.75 -4.515625 C -40.132812 -4.515625 -43.617188 -5.75 -46.203125 -8.21875 C -48.785156 -10.695312 -50.078125 -14.367188 -50.078125 -19.234375 Z M -50.078125 -19.234375 "/></g></g></g><g fill="#bfd2f8" fill-opacity="1"><g transform="translate(60.487648, 118.545555)"><g><path d="M -17.03125 -36.265625 C -14.363281 -36.265625 -11.921875 -35.875 -9.703125 -35.09375 C -7.492188 -34.320312 -5.601562 -33.207031 -4.03125 -31.75 C -2.457031 -30.289062 -1.238281 -28.535156 -0.375 -26.484375 C 0.476562 -24.441406 0.90625 -22.15625 0.90625 -19.625 C 0.90625 -17.125 0.476562 -14.851562 -0.375 -12.8125 C -1.238281 -10.769531 -2.457031 -9.015625 -4.03125 -7.546875 C -5.601562 -6.085938 -7.492188 -4.945312 -9.703125 -4.125 C -11.921875 -3.3125 -14.363281 -2.90625 -17.03125 -2.90625 C -19.695312 -2.90625 -22.128906 -3.320312 -24.328125 -4.15625 C -26.523438 -5 -28.394531 -6.160156 -29.9375 -7.640625 C -31.488281 -9.128906 -32.691406 -10.894531 -33.546875 -12.9375 C -34.410156 -14.976562 -34.84375 -17.207031 -34.84375 -19.625 C -34.84375 -22.070312 -34.410156 -24.316406 -33.546875 -26.359375 C -32.691406 -28.398438 -31.488281 -30.148438 -29.9375 -31.609375 C -28.394531 -33.078125 -26.523438 -34.21875 -24.328125 -35.03125 C -22.128906 -35.851562 -19.695312 -36.265625 -17.03125 -36.265625 Z M -17.03125 -26.453125 C -20 -26.453125 -22.332031 -25.859375 -24.03125 -24.671875 C -25.738281 -23.492188 -26.59375 -21.8125 -26.59375 -19.625 C -26.59375 -17.425781 -25.738281 -15.722656 -24.03125 -14.515625 C -22.332031 -13.316406 -20 -12.71875 -17.03125 -12.71875 C -14.0625 -12.71875 -11.707031 -13.316406 -9.96875 -14.515625 C -8.226562 -15.722656 -7.359375 -17.425781 -7.359375 -19.625 C -7.359375 -21.8125 -8.226562 -23.492188 -9.96875 -24.671875 C -11.707031 -25.859375 -14.0625 -26.453125 -17.03125 -26.453125 Z M -17.03125 -26.453125 "/></g></g></g><g fill="#bfd2f8" fill-opacity="1"><g transform="translate(60.487648, 79.373744)"><g><path d="M 0.640625 -18.0625 C 0.597656 -15.269531 0.300781 -13 -0.25 -11.25 C -0.8125 -9.507812 -1.597656 -8.132812 -2.609375 -7.125 C -3.617188 -6.113281 -4.84375 -5.425781 -6.28125 -5.0625 C -7.726562 -4.695312 -9.351562 -4.515625 -11.15625 -4.515625 L -48.53125 -4.515625 L -50.078125 -14.125 L -13.09375 -14.125 C -12.238281 -14.125 -11.46875 -14.1875 -10.78125 -14.3125 C -10.09375 -14.445312 -9.507812 -14.695312 -9.03125 -15.0625 C -8.5625 -15.425781 -8.175781 -15.953125 -7.875 -16.640625 C -7.570312 -17.335938 -7.378906 -18.265625 -7.296875 -19.421875 Z M 0.640625 -18.0625 "/></g></g></g><g fill="#bfd2f8" fill-opacity="1"><g transform="translate(60.487648, 58.981166)"><g><path d="M 0 -14.125 L 0 -4.515625 L -33.9375 -4.515625 L -33.9375 -14.125 Z M -43.75 -15.03125 C -41.988281 -15.03125 -40.601562 -14.457031 -39.59375 -13.3125 C -38.582031 -12.175781 -38.078125 -10.835938 -38.078125 -9.296875 C -38.078125 -7.742188 -38.582031 -6.394531 -39.59375 -5.25 C -40.601562 -4.113281 -41.988281 -3.546875 -43.75 -3.546875 C -45.507812 -3.546875 -46.894531 -4.113281 -47.90625 -5.25 C -48.925781 -6.394531 -49.4375 -7.742188 -49.4375 -9.296875 C -49.4375 -10.835938 -48.925781 -12.175781 -47.90625 -13.3125 C -46.894531 -14.457031 -45.507812 -15.03125 -43.75 -15.03125 Z M -43.75 -15.03125 "/></g></g></g><g fill="#bfd2f8" fill-opacity="1"><g transform="translate(60.487648, 40.330989)"><g><path d="M -17.03125 -36.265625 C -14.363281 -36.265625 -11.921875 -35.875 -9.703125 -35.09375 C -7.492188 -34.320312 -5.601562 -33.207031 -4.03125 -31.75 C -2.457031 -30.289062 -1.238281 -28.535156 -0.375 -26.484375 C 0.476562 -24.441406 0.90625 -22.15625 0.90625 -19.625 C 0.90625 -17.125 0.476562 -14.851562 -0.375 -12.8125 C -1.238281 -10.769531 -2.457031 -9.015625 -4.03125 -7.546875 C -5.601562 -6.085938 -7.492188 -4.945312 -9.703125 -4.125 C -11.921875 -3.3125 -14.363281 -2.90625 -17.03125 -2.90625 C -19.695312 -2.90625 -22.128906 -3.320312 -24.328125 -4.15625 C -26.523438 -5 -28.394531 -6.160156 -29.9375 -7.640625 C -31.488281 -9.128906 -32.691406 -10.894531 -33.546875 -12.9375 C -34.410156 -14.976562 -34.84375 -17.207031 -34.84375 -19.625 C -34.84375 -22.070312 -34.410156 -24.316406 -33.546875 -26.359375 C -32.691406 -28.398438 -31.488281 -30.148438 -29.9375 -31.609375 C -28.394531 -33.078125 -26.523438 -34.21875 -24.328125 -35.03125 C -22.128906 -35.851562 -19.695312 -36.265625 -17.03125 -36.265625 Z M -17.03125 -26.453125 C -20 -26.453125 -22.332031 -25.859375 -24.03125 -24.671875 C -25.738281 -23.492188 -26.59375 -21.8125 -26.59375 -19.625 C -26.59375 -17.425781 -25.738281 -15.722656 -24.03125 -14.515625 C -22.332031 -13.316406 -20 -12.71875 -17.03125 -12.71875 C -14.0625 -12.71875 -11.707031 -13.316406 -9.96875 -14.515625 C -8.226562 -15.722656 -7.359375 -17.425781 -7.359375 -19.625 C -7.359375 -21.8125 -8.226562 -23.492188 -9.96875 -24.671875 C -11.707031 -25.859375 -14.0625 -26.453125 -17.03125 -26.453125 Z M -17.03125 -26.453125 "/></g></g></g></g></g></g></svg>